<?xml version="1.0" encoding="UTF-8"?>
<svg xmlns="http://www.w3.org/2000/svg" version="1.1" viewBox="0 0 734.1 559.1">
  <!-- Generator: Adobe Illustrator 30.0.0, SVG Export Plug-In . SVG Version: 2.1.1 Build 91)  -->
  <defs>
    <style>
      .st0 {
        fill: #00c8a0;
      }

      .st1 {
        fill: #fff;
      }

      .st2 {
        fill: #004b3f;
      }
    </style>
  </defs>
  <g id="_Шар_2" data-name="Шар_2">
    <rect class="st2" width="734.1" height="559.1"/>
  </g>
  <g id="_Шар_21" data-name="_Шар_2">
    <g>
      <g>
        <path class="st1" d="M161.4,247.6h41.9v95.8c0,19-4.4,32.9-13.2,41.9-8.8,8.9-22.4,13.4-40.8,13.4s-6.3-.8-13-2.3v-30.1c3.6.6,15.2.8,20.4-5.4,3.4-4.1,4.8-11.9,4.8-23.2v-90h0Z"/>
        <path class="st1" d="M282.1,248.1c21.4,0,38.3,6.8,50.9,20.3,12.6,13.5,18.9,31.8,18.9,54.7s-6.3,41.2-18.9,54.7-29.6,20.3-50.9,20.3-38.1-6.8-50.7-20.3c-12.6-13.5-18.9-31.8-18.9-54.7s6.3-41.2,18.9-54.7c12.6-13.5,29.5-20.3,50.7-20.3h0ZM282.1,282.4c-9,0-15.9,3.5-20.8,10.6s-7.3,17.1-7.3,30.1,2.4,23.1,7.3,30.1c4.9,7.1,11.8,10.6,20.8,10.6s16.1-3.5,21-10.6,7.3-17.1,7.3-30.1-2.4-23.1-7.3-30.1c-4.9-7.1-11.9-10.6-21-10.6Z"/>
        <path class="st1" d="M363.9,398.1v-150h61.1c17.4,0,25.6.9,34.4,8s13.4,15.1,13.4,27.3-6.5,26.2-22.4,32.1h0c18.3,4.5,31.4,15.3,31.4,36.1s-2.4,24.1-11.3,32.8c-12,11.8-26.7,13.8-43.5,13.8h-63.1ZM418.5,279.1h-15.6v25.8h14.4c12.1,0,18.2-4.3,18.2-13s-5.7-12.8-17.1-12.8h.1ZM420.2,333.3h-17.2v32.7h18.1c7.9,0,13.6-1.3,17-3.8s5.1-6.6,5.1-12.3-1.8-10.1-5.5-12.7-9.5-3.9-17.6-3.9h.1Z"/>
        <path class="st1" d="M500.9,260.3c9.7-8.1,23.1-12.2,40.2-12.2s30.3,4,39.7,12c9.4,8,9.4,15.6,9.4,30.7h-34.5c-2.2-9.2-5.5-12.3-16.4-12.3s-8.2,1-10.8,3-3.9,4.7-3.9,8.1,1.6,6.8,4.9,8.8c3.2,2,9.7,4.1,19.2,6.6,6.1,1.6,11.2,3.1,15.3,4.4s8.5,3.3,13.2,5.8c4.7,2.6,8.3,5.3,11,8.4,2.7,3,5,6.9,6.8,11.7,1.9,4.8,2.8,10.3,2.8,16.4,0,14.4-5,25.7-15.1,34s-23.9,12.4-41.5,12.4-32.1-4.4-42.2-13.1-10.7-17.7-10.7-33.5h35.9c0,12.2,9.5,14.8,18.3,15.1s8.9-1.1,11.7-3.3c2.8-2.2,4.2-5.2,4.2-9s-1.6-7.2-4.7-9.1c-3.1-1.9-9.3-4.1-18.7-6.7-4.6-1.3-8.3-2.5-10.9-3.3-2.7-.9-6-2.1-9.9-3.6-3.9-1.5-7-3-9.3-4.4-2.2-1.4-4.7-3.3-7.4-5.5-2.7-2.3-4.7-4.7-6.1-7.4-1.4-2.6-2.6-5.7-3.6-9.4-1-3.6-1.5-7.6-1.5-11.9,0-13.7,4.9-24.6,14.6-32.8h0Z"/>
      </g>
      <g>
        <path class="st0" d="M491.8,408.4h6.7v15.7c0,3.1-.7,5.4-2.1,6.9s-3.6,2.2-6.5,2.2-2-.1-3-.4v-5.6c.6,0,1.1.1,1.5.1,1.3,0,2.2-.3,2.7-1s.8-2,.8-3.8v-14.1h-.1Z"/>
        <path class="st0" d="M504,417.3c1.7-1.7,4-2.5,6.9-2.5s5.2.8,6.9,2.5,2.6,3.9,2.6,6.8-.9,5.1-2.6,6.8c-1.7,1.7-4,2.5-6.9,2.5s-5.2-.8-6.9-2.5c-1.7-1.7-2.6-3.9-2.6-6.8s.9-5.1,2.6-6.8h0ZM512.9,420.9c-.5-.8-1.2-1.2-2-1.2s-1.5.4-2,1.2c-.5.8-.7,1.8-.7,3.2s.2,2.4.7,3.2c.5.8,1.2,1.2,2,1.2s1.5-.4,2-1.2c.5-.8.7-1.8.7-3.2s-.2-2.4-.7-3.2Z"/>
        <path class="st0" d="M529.4,408.4v4.8h-6.4v-4.8h6.4ZM529.4,415.4v17.4h-6.4v-17.4h6.4Z"/>
        <path class="st0" d="M543.9,414.9c1.9,0,3.5.6,4.6,1.9s1.7,3,1.7,5.3v10.7h-6.4v-9.9c0-1.9-.7-2.9-2-2.9s-2.3,1.4-2.3,4.1v8.8h-6.4v-17.4h5.9v2h0c1.2-1.6,2.8-2.5,4.9-2.5h0Z"/>
        <path class="st0" d="M567.2,433.3c-1.9,0-3.5-.6-4.6-1.9-1.1-1.2-1.7-3-1.7-5.3v-10.7h6.4v9.9c0,1.9.7,2.9,2,2.9s2.3-1.4,2.3-4.1v-8.8h6.4v17.4h-5.9v-2h0c-1.2,1.6-2.8,2.5-4.9,2.5h0Z"/>
        <path class="st0" d="M589.2,414.8c2.5,0,4.4.5,5.8,1.4,1.4,1,2.1,2.4,2.1,4.3h-6.1c0-1.3-.6-1.9-1.9-1.9s-1.6.4-1.6,1.2.2.7.6,1c.4.2,1.3.5,2.7.9,1,.3,1.9.5,2.5.8s1.3.6,2.1,1,1.3,1,1.7,1.7.6,1.5.6,2.5c0,1.7-.7,3.1-2.2,4.2-1.4,1-3.5,1.5-6.1,1.5-5.8,0-8.6-2.1-8.6-6.2h6.4c0,1.4.8,2.2,2.3,2.2s1.8-.4,1.8-1.2-.2-.8-.8-1.1c-.5-.3-1.5-.6-3.2-1-.8-.2-1.4-.4-1.8-.5s-1-.4-1.6-.7c-.6-.3-1.1-.6-1.5-1-.3-.4-.6-.8-.9-1.4-.3-.6-.4-1.3-.4-2,0-1.7.7-3,2-4s3.3-1.5,6-1.5v-.2Z"/>
      </g>
      <path class="st1" d="M222.4,125.8v103.6h-30.2v-41h-25.7v41h-30.2v-103.6h30.2v35.1h25.7v-35.1s30.2,0,30.2,0Z"/>
      <path class="st1" d="M262,125.7v24.7h-26.8v-24.7h26.8ZM262,160v69.5h-26.8v-69.5h26.8Z"/>
    </g>
  </g>
</svg>